<svg width="544" height="112" viewBox="0 0 544 112" fill="none" xmlns="http://www.w3.org/2000/svg">
<g clip-path="url(#clip0_33_120)">
<g clip-path="url(#clip1_33_120)">
<rect x="4.3812" y="68.0208" width="22" height="56" rx="11" transform="rotate(-45 4.3812 68.0208)" fill="#4D3886"/>
</g>
<g clip-path="url(#clip2_33_120)">
<rect x="12.8665" y="28.4228" width="22" height="100" rx="11" transform="rotate(-45 12.8665 28.4228)" fill="#3969AC"/>
</g>
<g clip-path="url(#clip3_33_120)">
<rect x="52.4645" y="19.9376" width="22" height="56" rx="11" transform="rotate(-45 52.4645 19.9376)" fill="#11A579"/>
</g>
</g>
<path d="M140.258 27.3906C147.315 27.3906 152.484 28.9661 155.766 32.1172C159.047 35.2422 160.688 39.5911 160.688 45.1641C160.688 47.7422 160.31 50.1771 159.555 52.4688C158.799 54.7604 157.589 56.7917 155.922 58.5625C154.281 60.3073 152.107 61.6875 149.398 62.7031C146.69 63.6927 143.357 64.1875 139.398 64.1875H134.672V84.5H122.758V27.3906H140.258ZM139.594 37.1953H134.672V54.3828H138.227C140.388 54.3828 142.25 54.0833 143.812 53.4844C145.375 52.8594 146.586 51.8958 147.445 50.5938C148.305 49.2917 148.734 47.599 148.734 45.5156C148.734 42.7031 147.979 40.6198 146.469 39.2656C144.984 37.8854 142.693 37.1953 139.594 37.1953ZM193.266 40.0078C193.839 40.0078 194.503 40.0469 195.258 40.125C196.013 40.1771 196.651 40.2682 197.172 40.3984L196.273 51.5312C195.857 51.401 195.297 51.3099 194.594 51.2578C193.917 51.1797 193.292 51.1406 192.719 51.1406C191.26 51.1406 189.854 51.349 188.5 51.7656C187.172 52.1823 185.974 52.8333 184.906 53.7188C183.865 54.6042 183.044 55.75 182.445 57.1562C181.872 58.5625 181.586 60.2682 181.586 62.2734V84.5H169.945V40.8281H178.773L180.492 48.1328H181.039C181.846 46.6745 182.849 45.3333 184.047 44.1094C185.271 42.8594 186.651 41.8698 188.188 41.1406C189.75 40.3854 191.443 40.0078 193.266 40.0078ZM242.641 62.5859C242.641 66.1016 242.185 69.2656 241.273 72.0781C240.388 74.8646 239.06 77.2474 237.289 79.2266C235.544 81.1797 233.409 82.6771 230.883 83.7188C228.383 84.7604 225.505 85.2812 222.25 85.2812C219.229 85.2812 216.482 84.7734 214.008 83.7578C211.56 82.7161 209.438 81.2057 207.641 79.2266C205.87 77.2474 204.503 74.8646 203.539 72.0781C202.576 69.2656 202.094 66.1016 202.094 62.5859C202.094 57.8203 202.901 53.7578 204.516 50.3984C206.13 47.013 208.448 44.4349 211.469 42.6641C214.516 40.8932 218.188 40.0078 222.484 40.0078C226.417 40.0078 229.893 40.8802 232.914 42.625C235.961 44.3698 238.344 46.9219 240.062 50.2812C241.781 53.6146 242.641 57.7161 242.641 62.5859ZM213.93 62.5859C213.93 65.5026 214.216 67.9505 214.789 69.9297C215.388 71.8828 216.312 73.3672 217.562 74.3828C218.812 75.3724 220.427 75.8672 222.406 75.8672C224.385 75.8672 225.987 75.3724 227.211 74.3828C228.435 73.3672 229.333 71.8698 229.906 69.8906C230.479 67.9115 230.766 65.4766 230.766 62.5859C230.766 59.6432 230.479 57.2083 229.906 55.2812C229.333 53.3281 228.422 51.8698 227.172 50.9062C225.948 49.9427 224.333 49.4609 222.328 49.4609C219.385 49.4609 217.25 50.5547 215.922 52.7422C214.594 54.9036 213.93 58.1849 213.93 62.5859ZM260.375 62.1953L247.211 40.8281H260.258L268.07 54.5781L275.922 40.8281H288.969L275.648 62.1953L289.594 84.5H276.508L268.031 69.7344L259.555 84.5H246.508L260.375 62.1953ZM290.102 40.8281H302.719L310.336 64.6953C310.596 65.5286 310.818 66.362 311 67.1953C311.182 68.0286 311.339 68.888 311.469 69.7734C311.625 70.6328 311.742 71.5182 311.82 72.4297H312.055C312.211 71.1016 312.419 69.8125 312.68 68.5625C312.966 67.3125 313.318 66.0365 313.734 64.7344L321.156 40.8281H333.539L316.117 89.8125C315.049 92.9635 313.656 95.5547 311.938 97.5859C310.245 99.6432 308.292 101.18 306.078 102.195C303.865 103.211 301.404 103.719 298.695 103.719C297.419 103.719 296.299 103.641 295.336 103.484C294.398 103.354 293.565 103.211 292.836 103.055V93.6406C293.383 93.7969 294.034 93.9271 294.789 94.0312C295.57 94.1354 296.378 94.1875 297.211 94.1875C298.773 94.1875 300.089 93.862 301.156 93.2109C302.25 92.5599 303.174 91.6484 303.93 90.4766C304.685 89.3047 305.31 87.9505 305.805 86.4141L306.508 84.1484L290.102 40.8281ZM372.836 68.4844C372.836 71.8698 372.042 74.8255 370.453 77.3516C368.865 79.8776 366.56 81.8307 363.539 83.2109C360.518 84.5911 356.885 85.2812 352.641 85.2812C350.74 85.2812 348.878 85.151 347.055 84.8906C345.258 84.6562 343.513 84.2917 341.82 83.7969C340.154 83.3021 338.552 82.6771 337.016 81.9219V70.6719C339.62 71.8958 342.302 72.9635 345.062 73.875C347.849 74.7865 350.583 75.2422 353.266 75.2422C355.115 75.2422 356.612 74.9818 357.758 74.4609C358.93 73.9401 359.776 73.224 360.297 72.3125C360.844 71.375 361.117 70.3203 361.117 69.1484C361.117 67.7682 360.688 66.5833 359.828 65.5938C358.969 64.5781 357.758 63.6276 356.195 62.7422C354.633 61.8307 352.797 60.8411 350.688 59.7734C349.281 59.0703 347.823 58.263 346.312 57.3516C344.802 56.4141 343.383 55.3073 342.055 54.0312C340.753 52.7292 339.685 51.1667 338.852 49.3438C338.044 47.5208 337.641 45.3333 337.641 42.7812C337.641 39.4219 338.396 36.5312 339.906 34.1094C341.417 31.6875 343.565 29.8255 346.352 28.5234C349.164 27.2214 352.497 26.5703 356.352 26.5703C359.19 26.5703 361.911 26.9089 364.516 27.5859C367.12 28.263 369.802 29.2396 372.562 30.5156L368.852 39.9688C366.378 38.901 364.138 38.0807 362.133 37.5078C360.154 36.9349 358.148 36.6484 356.117 36.6484C354.659 36.6484 353.422 36.8958 352.406 37.3906C351.391 37.8594 350.609 38.5234 350.062 39.3828C349.542 40.2422 349.281 41.2318 349.281 42.3516C349.281 43.7057 349.646 44.8516 350.375 45.7891C351.104 46.7266 352.224 47.625 353.734 48.4844C355.245 49.3438 357.172 50.3594 359.516 51.5312C362.328 52.9115 364.724 54.3568 366.703 55.8672C368.682 57.3776 370.193 59.1354 371.234 61.1406C372.302 63.1198 372.836 65.5677 372.836 68.4844ZM399.398 75.8672C400.57 75.8672 401.729 75.75 402.875 75.5156C404.047 75.2552 405.206 74.9297 406.352 74.5391V83.2891C405.102 83.888 403.578 84.3698 401.781 84.7344C400.01 85.099 398.083 85.2812 396 85.2812C393.396 85.2812 391.104 84.8516 389.125 83.9922C387.172 83.1068 385.648 81.6224 384.555 79.5391C383.461 77.4297 382.914 74.5651 382.914 70.9453V49.6953H377.484V44.5391L383.773 40.8281L387.016 31.5312H394.516V40.8281H405.883V49.6953H394.516V70.8672C394.516 72.5599 394.945 73.8229 395.805 74.6562C396.69 75.4635 397.888 75.8672 399.398 75.8672ZM452.719 62.5859C452.719 66.1016 452.263 69.2656 451.352 72.0781C450.466 74.8646 449.138 77.2474 447.367 79.2266C445.622 81.1797 443.487 82.6771 440.961 83.7188C438.461 84.7604 435.583 85.2812 432.328 85.2812C429.307 85.2812 426.56 84.7734 424.086 83.7578C421.638 82.7161 419.516 81.2057 417.719 79.2266C415.948 77.2474 414.581 74.8646 413.617 72.0781C412.654 69.2656 412.172 66.1016 412.172 62.5859C412.172 57.8203 412.979 53.7578 414.594 50.3984C416.208 47.013 418.526 44.4349 421.547 42.6641C424.594 40.8932 428.266 40.0078 432.562 40.0078C436.495 40.0078 439.971 40.8802 442.992 42.625C446.039 44.3698 448.422 46.9219 450.141 50.2812C451.859 53.6146 452.719 57.7161 452.719 62.5859ZM424.008 62.5859C424.008 65.5026 424.294 67.9505 424.867 69.9297C425.466 71.8828 426.391 73.3672 427.641 74.3828C428.891 75.3724 430.505 75.8672 432.484 75.8672C434.464 75.8672 436.065 75.3724 437.289 74.3828C438.513 73.3672 439.411 71.8698 439.984 69.8906C440.557 67.9115 440.844 65.4766 440.844 62.5859C440.844 59.6432 440.557 57.2083 439.984 55.2812C439.411 53.3281 438.5 51.8698 437.25 50.9062C436.026 49.9427 434.411 49.4609 432.406 49.4609C429.464 49.4609 427.328 50.5547 426 52.7422C424.672 54.9036 424.008 58.1849 424.008 62.5859ZM485.375 40.0078C485.948 40.0078 486.612 40.0469 487.367 40.125C488.122 40.1771 488.76 40.2682 489.281 40.3984L488.383 51.5312C487.966 51.401 487.406 51.3099 486.703 51.2578C486.026 51.1797 485.401 51.1406 484.828 51.1406C483.37 51.1406 481.964 51.349 480.609 51.7656C479.281 52.1823 478.083 52.8333 477.016 53.7188C475.974 54.6042 475.154 55.75 474.555 57.1562C473.982 58.5625 473.695 60.2682 473.695 62.2734V84.5H462.055V40.8281H470.883L472.602 48.1328H473.148C473.956 46.6745 474.958 45.3333 476.156 44.1094C477.38 42.8594 478.76 41.8698 480.297 41.1406C481.859 40.3854 483.552 40.0078 485.375 40.0078ZM513.93 40.0078C517.81 40.0078 521.143 40.7891 523.93 42.3516C526.716 43.9141 528.865 46.1667 530.375 49.1094C531.885 52.0521 532.641 55.6328 532.641 59.8516V65.6328H505.922C506.026 69.0964 506.964 71.7786 508.734 73.6797C510.531 75.5547 513.057 76.4922 516.312 76.4922C518.917 76.4922 521.299 76.2188 523.461 75.6719C525.648 75.099 527.914 74.2396 530.258 73.0938V82.1953C528.174 83.263 525.987 84.0443 523.695 84.5391C521.43 85.0339 518.721 85.2812 515.57 85.2812C511.273 85.2812 507.523 84.4609 504.32 82.8203C501.117 81.1536 498.63 78.6667 496.859 75.3594C495.089 72.026 494.203 67.8984 494.203 62.9766C494.203 57.8984 495.01 53.6667 496.625 50.2812C498.266 46.8698 500.557 44.3047 503.5 42.5859C506.443 40.8672 509.919 40.0078 513.93 40.0078ZM514.008 48.4062C511.82 48.4062 510.01 49.1615 508.578 50.6719C507.172 52.1562 506.365 54.526 506.156 57.7812H521.742C521.742 55.9583 521.456 54.3438 520.883 52.9375C520.31 51.5312 519.451 50.4245 518.305 49.6172C517.185 48.8099 515.753 48.4062 514.008 48.4062Z" fill="#2E2C34"/>
<defs>
<clipPath id="clip0_33_120">
<rect width="96" height="96" fill="white" transform="translate(8 8)"/>
</clipPath>
<clipPath id="clip1_33_120">
<rect width="22" height="56" fill="white" transform="translate(4.3812 68.0208) rotate(-45)"/>
</clipPath>
<clipPath id="clip2_33_120">
<rect width="22" height="100" fill="white" transform="translate(12.8665 28.4228) rotate(-45)"/>
</clipPath>
<clipPath id="clip3_33_120">
<rect width="22" height="56" fill="white" transform="translate(52.4645 19.9376) rotate(-45)"/>
</clipPath>
</defs>
</svg>
